<svg width="220" height="220" viewBox="0 0 220 220" fill="none" xmlns="http://www.w3.org/2000/svg">
<g clip-path="url(#clip0_108_49)">
<path d="M110 220C170.751 220 220 170.751 220 110C220 49.2487 170.751 0 110 0C49.2487 0 0 49.2487 0 110C0 170.751 49.2487 220 110 220Z" fill="#A259FF"/>
<path d="M74.6213 91.1893L99.44 104.389L112.64 97.7893L81.0906 80.6981V50.5993L141.749 82.0868L154.949 75.4868L77.2613 34.7593C76.3754 34.2939 75.3843 34.0652 74.3841 34.0954C73.3839 34.1256 72.4084 34.4137 71.5522 34.9317C70.696 35.4497 69.9882 36.18 69.4972 37.052C69.0063 37.924 68.7489 38.908 68.75 39.9087V81.6193C68.7706 85.6549 71.0325 89.3468 74.6213 91.1893ZM169.201 84.1906C168.343 83.3571 167.248 82.8088 166.067 82.6205C164.886 82.4322 163.675 82.6132 162.601 83.1387L74.6213 128.809C71.0119 130.666 68.7431 134.385 68.75 138.448V180.09C68.7489 181.091 69.0063 182.075 69.4972 182.947C69.9882 183.819 70.696 184.549 71.5522 185.067C72.4084 185.585 73.3839 185.873 74.3841 185.903C75.3843 185.933 76.3754 185.705 77.2613 185.239L165.041 139.699C168.706 137.802 170.981 133.993 170.919 129.868V88.2881C170.92 87.5251 170.768 86.7698 170.473 86.0663C170.177 85.3627 169.745 84.7251 169.201 84.1906ZM158.641 129.139L81.0906 169.399V139.301L158.641 99.0406V129.139Z" fill="white"/>
</g>
<defs>
<clipPath id="clip0_108_49">
<rect width="220" height="220" fill="white"/>
</clipPath>
</defs>
</svg>
